<svg xmlns="http://www.w3.org/2000/svg" width="50" height="50" viewBox="0 0 512 512">
  <path fill="#DD0031" d="M391.8 0H120.2c-11.9 0-23.1 4.8-31.3 13.6l-59.9 69.1c-7.9 9.1-11.4 20.5-9.4 32.2l13.1 76.4-55.2 64.3c-8.7 10-11.6 23.2-8.6 35.5 3 12.3 11.9 22.2 23.7 28l69.7 41.8-15.5 76.2c-2.5 12.5 3.4 24.7 14.6 31.5 10.4 6.6 23.4 8.2 35.1 4.5l74.9-28.1 74.9 28.1c11.7 3.7 24.7 2.1 35.1-4.5 11.3-6.8 17.1-19 14.6-31.5l-15.5-76.2 69.7-41.8c11.8-5.8 20.7-15.7 23.7-28 3-12.3 0.1-25.5-8.6-35.5l-55.2-64.3 13.1-76.4c2.1-11.7-1.5-23.1-9.4-32.2l-59.9-69.1C414.9 4.8 402.7 0 391.8 0z"/>
</svg>
