<svg xmlns="http://www.w3.org/2000/svg" width="50" height="50" viewBox="0 0 100 100">
  <path fill="#0769AD" d="M50,0C22.388,0,0,22.388,0,50s22.388,50,50,50s50-22.388,50-50S77.612,0,50,0z M62.8,64.3c-3.1,5.6-9.5,8.9-16.7,8.9c-6.6,0-12.6-3.6-15.8-8.8l-3.8,5.2c4.3,6.4,12.3,10.8,20.6,10.8c15.5,0,28.2-12.7,28.2-28.3c0-3.8-0.8-7.4-2.3-10.8l-5.6,4.1C60.8,58.6,62.1,61.5,62.8,64.3z M49.5,19.4c-6.5,0-12.2,3.8-15.3,9.2l-7.9-6.4c5.3-8.4,14.9-14,26-14c15.7,0,28.3,12.7,28.3,28.3c0,7.9-3.2,15.1-8.4,20.1l-5.7-4.1c3.3-3.4,5.2-7.9,5.2-12.8C77.7,32.1,64.1,19.4,49.5,19.4z"/>
</svg>
