<svg xmlns="http://www.w3.org/2000/svg" xmlns:xlink="http://www.w3.org/1999/xlink" width="256" height="256" viewBox="0 0 256 256">
   <rect width="256" height="256" fill="#306998" rx="60"/>
   <path fill="#FFD43B" d="M120.639,126.227c4.244,0 7.916-3.672 7.916-7.916s-3.672-7.916-7.916-7.916-7.916,3.672-7.916,7.916  C112.723,122.555 116.395,126.227 120.639,126.227z M150.004,115.859h12.288c3.523,0 6.425-2.902 6.425-6.425  c0-3.523-2.902-6.425-6.425-6.425h-6.31v12.851h6.31c3.523,0 6.425-2.902 6.425-6.425c0-3.523-2.902-6.425-6.425-6.425  c-2.234,0-4.198,1.205-5.187,2.909-1.049-1.699-3.022-2.909-5.346-2.909c-3.523,0-6.425,2.902-6.425,6.425  c0,3.523 2.902,6.425 6.425,6.425z"/>
</svg>
