<svg xmlns="http://www.w3.org/2000/svg" width="50" height="50" viewBox="0 0 50 50">
  <circle cx="25" cy="25" r="25" fill="#E1A95F"/>
  <path fill="#fff" d="M26.7 12.6c-0.4-0.3-0.9-0.3-1.3 0c-3.6 2.3-8.2 2.3-11.8 0c-0.4-0.3-0.9-0.3-1.3 0c-0.4 0.3-0.4 0.9 0 1.3c2.6 1.7 5.9 2.6 9.1 2.6c3.2 0 6.5-0.9 9.1-2.6c0.3-0.4 0.3-1 0-1.3zM37.4 18.3c-2.6 1.7-5.9 2.6-9.1 2.6c-3.2 0-6.5-0.9-9.1-2.6c-0.4-0.3-0.9-0.3-1.3 0c-0.4 0.3-0.4 0.9 0 1.3c2.6 1.7 5.9 2.6 9.1 2.6c3.2 0 6.5-0.9 9.1-2.6c0.3-0.4 0.3-1 0-1.3z"/>
</svg>
