<svg xmlns="http://www.w3.org/2000/svg" width="50" height="50" viewBox="0 0 50 50">
  <circle cx="25" cy="25" r="25" fill="#8DD6F3"/>
  <path fill="#fff" d="M35.7 14.3c-0.4 0-0.7 0.1-1 0.4l-7.3 6.4l-7.2-6.4c-0.2-0.3-0.5-0.4-0.9-0.4c-0.7 0-1.2 0.5-1.2 1.2c0 0.4 0.2 0.8 0.5 1.1l5.1 4.5l-5.1 4.5c-0.3 0.3-0.5 0.7-0.5 1.1c0 0.7 0.5 1.2 1.2 1.2c0.4 0 0.7-0.1 0.9-0.4l7.2-6.4l7.3 6.4c0.3 0.3 0.7 0.4 1 0.4c0.7 0 1.2-0.5 1.2-1.2c0-0.4-0.2-0.8-0.5-1.1l-5.1-4.5l5.1-4.5c0.3-0.3 0.5-0.7 0.5-1.1C37 14.8 36.4 14.3 35.7 14.3z"/>
</svg>
